<?xml version="1.0" encoding="utf-8"?>
<!-- Generator: Adobe Illustrator 20.0.0, SVG Export Plug-In . SVG Version: 6.00 Build 0)  -->
<svg version="1.0" id="图层_1" xmlns="http://www.w3.org/2000/svg" xmlns:xlink="http://www.w3.org/1999/xlink" x="0px" y="0px"
	 viewBox="0 0 112.4 40" style="enable-background:new 0 0 112.4 40;" xml:space="preserve">
<style type="text/css">
	.st0{fill:#FFFFFF;}
	.st1{fill:url(#SVGID_1_);}
	.st2{fill:url(#SVGID_2_);}
	.st3{fill:url(#SVGID_3_);}
	.st4{fill:url(#SVGID_4_);}
</style>
<g>
	<path class="st0" d="M71.7,11.9v12.4c0,0.5-0.4,0.8-0.8,0.8h-2.3c-0.5,0-0.8-0.4-0.8-0.8V11.9c0-0.1-0.1-0.2-0.2-0.2h-3.2
		c-0.1,0-0.2,0.1-0.2,0.2V27c0,0.9,0.7,1.7,1.7,1.7h7.7c0.9,0,1.7-0.7,1.7-1.7V11.9c0-0.1-0.1-0.2-0.2-0.2h-3.2
		C71.8,11.7,71.7,11.8,71.7,11.9z"/>
	<path class="st0" d="M79.1,11.7v20l3.5-3.1V15.4c0-0.1,0.1-0.2,0.2-0.2h2.6c0.1,0,0.2,0.1,0.2,0.2v13c0,0.1,0.1,0.2,0.2,0.2H89
		c0.1,0,0.2-0.1,0.2-0.2v-13c0-0.1,0.1-0.2,0.2-0.2h2c0.5,0,0.8,0.4,0.8,0.8v12.4c0,0.1,0.1,0.2,0.2,0.2h3.2c0.1,0,0.2-0.1,0.2-0.2
		v-15c0-0.9-0.7-1.7-1.7-1.7H79.1z"/>
	<path class="st0" d="M99.5,13.4V27c0,0.9,0.7,1.7,1.7,1.7h7.7c0.9,0,1.7-0.7,1.7-1.7V13.4c0-0.9-0.7-1.7-1.7-1.7h-7.7
		C100.2,11.7,99.5,12.4,99.5,13.4z M106.1,24.8h-2.3c-0.5,0-0.8-0.4-0.8-0.8v-7.7c0-0.5,0.4-0.8,0.8-0.8h2.3c0.5,0,0.8,0.4,0.8,0.8
		V24C107,24.5,106.6,24.8,106.1,24.8z"/>
	<path class="st0" d="M59.2,20l1.1-1.1c0.1-0.1,0.1-0.1,0.1-0.2v-5.4c0-0.9-0.7-1.7-1.7-1.7h-9.3v16.9h9.3c0.9,0,1.7-0.7,1.7-1.7
		v-5.4c0-0.1,0-0.2-0.1-0.2L59.2,20C59.1,20.2,59.1,20.1,59.2,20z M56,25.1h-3.1v-3.5H56c0.5,0,0.8,0.4,0.8,0.8v1.9
		C56.8,24.7,56.4,25.1,56,25.1z M56.8,17.9c0,0.5-0.4,0.8-0.8,0.8h-3.1l0,0v-3.5H56c0.5,0,0.8,0.4,0.8,0.8V17.9z"/>
</g>
<g>
	<g>
		
			<linearGradient id="SVGID_1_" gradientUnits="userSpaceOnUse" x1="9.9" y1="360.7372" x2="9.9" y2="393.5713" gradientTransform="matrix(1 0 0 1 0 -358)">
			<stop  offset="0" style="stop-color:#00D080"/>
			<stop  offset="1" style="stop-color:#0BDD60"/>
		</linearGradient>
		<path class="st1" d="M17.9,10.8V0.6c0-0.1-0.1-0.2-0.2-0.1L2,9.5L1.9,9.6v10.2C1.9,20,2.1,20,2.2,20l15.6-9
			C17.8,10.9,17.9,10.9,17.9,10.8z"/>
	</g>
	<g>
		
			<linearGradient id="SVGID_2_" gradientUnits="userSpaceOnUse" x1="14.6625" y1="360.7372" x2="14.6625" y2="393.5713" gradientTransform="matrix(1 0 0 1 0 -358)">
			<stop  offset="0" style="stop-color:#00D080"/>
			<stop  offset="1" style="stop-color:#0BDD60"/>
		</linearGradient>
		<path class="st2" d="M17.9,23.6v-7.1c0-0.1-0.1-0.2-0.2-0.1L11.5,20c-0.1,0.1-0.1,0.2,0,0.3l6.1,3.5
			C17.7,23.8,17.9,23.8,17.9,23.6z"/>
	</g>
	<g>
		
			<linearGradient id="SVGID_3_" gradientUnits="userSpaceOnUse" x1="30.55" y1="360.7372" x2="30.55" y2="393.5713" gradientTransform="matrix(1 0 0 1 0 -358)">
			<stop  offset="0" style="stop-color:#00D080"/>
			<stop  offset="1" style="stop-color:#0BDD60"/>
		</linearGradient>
		<path class="st3" d="M33.5,6.9v20.5c0,0.1,0,0.1-0.1,0.1L29,30.1c-0.1,0.1-0.2,0-0.2-0.1V4.1c0-0.1,0-0.1-0.1-0.1l-5.9-3.4
			c-0.1-0.1-0.2,0-0.2,0.1v7.6l0,0V32l0,0v7.6c0,0.1,0.1,0.2,0.2,0.1l15.6-9l0.1-0.1V9.7c0-0.1,0-0.1-0.1-0.1l-4.7-2.7
			C33.6,6.8,33.5,6.8,33.5,6.9z"/>
	</g>
	<g>
		
			<linearGradient id="SVGID_4_" gradientUnits="userSpaceOnUse" x1="9.95" y1="360.7372" x2="9.95" y2="393.5713" gradientTransform="matrix(1 0 0 1 0 -358)">
			<stop  offset="0" style="stop-color:#00D080"/>
			<stop  offset="1" style="stop-color:#0BDD60"/>
		</linearGradient>
		<path class="st4" d="M17.8,29.3l-15.6-9c-0.1-0.1-0.2,0-0.2,0.1v10.2c0,0.1,0,0.1,0.1,0.1l15.6,9c0.1,0.1,0.2,0,0.2-0.1V29.4
			C17.9,29.3,17.8,29.3,17.8,29.3z"/>
	</g>
</g>
</svg>
